<svg width="21" height="20" viewBox="0 0 21 20" fill="none" xmlns="http://www.w3.org/2000/svg">
<g clip-path="url(#clip0_636_20977)">
<path d="M3.49983 20C3.11345 20 2.79987 19.72 2.79987 19.375V9.375C2.79987 9.03 3.11345 8.75 3.49983 8.75C3.88622 8.75 4.1998 9.03 4.1998 9.375V19.375C4.1998 19.72 3.88622 20 3.49983 20Z" fill="var(--icon-stroke, currentColor)"/>
<path d="M6.29976 20C5.91338 20 5.59979 19.72 5.59979 19.375V9.375C5.59979 9.03 5.91338 8.75 6.29976 8.75C6.68614 8.75 6.99973 9.03 6.99973 9.375V19.375C6.99973 19.72 6.68614 20 6.29976 20Z" fill="var(--icon-stroke, currentColor)"/>
<path d="M9.0996 20C8.71321 20 8.39963 19.72 8.39963 19.375V7.5H1.39994V19.375C1.39994 19.72 1.08635 20 0.699969 20C0.313586 20 0 19.72 0 19.375V6.875C0 6.86333 0.000933311 6.84667 0.0027999 6.8325C0.00466648 6.81333 0.00653303 6.795 0.00933291 6.77667C0.0139994 6.755 0.0186658 6.73667 0.0233323 6.71917C0.0307986 6.69583 0.0373317 6.67667 0.044798 6.65833C0.0531976 6.63833 0.0625306 6.62 0.0718635 6.6025C0.0811964 6.58417 0.0914626 6.5675 0.102662 6.55167C0.114795 6.53417 0.126928 6.5175 0.140927 6.50167C0.149327 6.49 0.160526 6.47667 0.167993 6.46833L4.19981 2.26833V0.625C4.19981 0.28 4.5134 0 4.89978 0C5.28617 0 5.59975 0.28 5.59975 0.625V2.26917L9.63064 6.46833C9.63904 6.47667 9.65024 6.49 9.65864 6.50167C9.6717 6.5175 9.68477 6.53417 9.69597 6.55083C9.70717 6.56833 9.71744 6.58417 9.72677 6.60083C9.73704 6.62 9.74543 6.6375 9.75383 6.65667C9.76223 6.67667 9.76877 6.69583 9.77437 6.71417C9.7809 6.73667 9.78557 6.755 9.78837 6.77333C9.7921 6.79417 9.79397 6.81333 9.79583 6.8325C9.7977 6.84667 9.79863 6.86333 9.79863 6.875V19.375C9.79957 19.72 9.48598 20 9.0996 20ZM7.5774 6.25L4.89978 3.46L2.22217 6.25H7.5774Z" fill="var(--icon-stroke, currentColor)"/>
<path d="M20.2991 20C19.9127 20 19.5991 19.72 19.5991 19.375V9.20087L12.5994 7.1167V19.375C12.5994 19.72 12.2858 20 11.8994 20C11.513 20 11.1995 19.72 11.1995 19.375V7.11753C11.1995 6.98253 11.2237 6.84837 11.2723 6.7192C11.3908 6.40337 11.64 6.1467 11.975 5.99837C12.172 5.91087 12.381 5.8667 12.5975 5.8667C12.7478 5.8667 12.8981 5.88837 13.0427 5.9317L20.0424 8.01503C20.6145 8.18587 20.999 8.66253 21 9.20087V19.3759C20.999 19.72 20.6854 20 20.2991 20Z" fill="var(--icon-stroke, currentColor)"/>
<path d="M17.4992 18.75C17.1128 18.75 16.7993 18.47 16.7993 18.125V17.5C16.7993 17.155 17.1128 16.875 17.4992 16.875C17.8856 16.875 18.1992 17.155 18.1992 17.5V18.125C18.1992 18.47 17.8856 18.75 17.4992 18.75Z" fill="var(--icon-stroke, currentColor)"/>
<path d="M17.4992 15.625C17.1128 15.625 16.7993 15.345 16.7993 15V14.375C16.7993 14.03 17.1128 13.75 17.4992 13.75C17.8856 13.75 18.1992 14.03 18.1992 14.375V15C18.1992 15.345 17.8856 15.625 17.4992 15.625Z" fill="var(--icon-stroke, currentColor)"/>
<path d="M17.4992 12.5C17.1128 12.5 16.7993 12.22 16.7993 11.875V11.25C16.7993 10.905 17.1128 10.625 17.4992 10.625C17.8856 10.625 18.1992 10.905 18.1992 11.25V11.875C18.1992 12.22 17.8856 12.5 17.4992 12.5Z" fill="var(--icon-stroke, currentColor)"/>
<path d="M14.6994 18.75C14.313 18.75 13.9994 18.47 13.9994 18.125V17.5C13.9994 17.155 14.313 16.875 14.6994 16.875C15.0857 16.875 15.3993 17.155 15.3993 17.5V18.125C15.3993 18.47 15.0857 18.75 14.6994 18.75Z" fill="var(--icon-stroke, currentColor)"/>
<path d="M14.6994 15.625C14.313 15.625 13.9994 15.345 13.9994 15V14.375C13.9994 14.03 14.313 13.75 14.6994 13.75C15.0857 13.75 15.3993 14.03 15.3993 14.375V15C15.3993 15.345 15.0857 15.625 14.6994 15.625Z" fill="var(--icon-stroke, currentColor)"/>
<path d="M14.6994 12.5C14.313 12.5 13.9994 12.22 13.9994 11.875V11.25C13.9994 10.905 14.313 10.625 14.6994 10.625C15.0857 10.625 15.3993 10.905 15.3993 11.25V11.875C15.3993 12.22 15.0857 12.5 14.6994 12.5Z" fill="var(--icon-stroke, currentColor)"/>
</g>
<defs>
<clipPath id="clip0_636_20977">
<rect width="21" height="20" fill="white"/>
</clipPath>
</defs>
</svg>
