<svg width="20" height="21" viewBox="0 0 20 21" fill="none" xmlns="http://www.w3.org/2000/svg">
<path d="M8.65656 11.6372C8.67352 11.2818 8.46115 10.9587 8.14431 10.797C5.5024 9.44829 2.32542 5.80184 1.75615 2.70311C1.6554 2.15472 2.04017 1.68473 2.59396 1.61991C3.67031 1.49391 5.8554 1.33325 10 1.33325C14.1446 1.33325 16.3297 1.49391 17.4061 1.61991C17.9599 1.68473 18.3446 2.15472 18.2439 2.70311C17.6746 5.80154 14.4982 9.44763 11.8564 10.7966C11.5396 10.9583 11.3273 11.2815 11.3442 11.6368L11.5801 16.5907C11.6054 17.122 11.9651 17.5768 12.4676 17.7515C13.3662 18.0638 14.2256 18.423 14.6755 18.6173C14.8742 18.703 15.0004 18.8991 15.0004 19.1155C15.0004 19.4199 14.7537 19.6666 14.4494 19.6666H5.55144C5.2471 19.6666 5.00044 19.4199 5.00044 19.1156C5.00044 18.8991 5.1266 18.703 5.32535 18.6173C5.77527 18.423 6.63465 18.0639 7.53323 17.7515C8.03569 17.5769 8.3954 17.1221 8.42069 16.5908L8.65656 11.6372Z" stroke="var(--icon-stroke, currentColor) " stroke-width="1.3" stroke-linejoin="round"/>
<path d="M17.16 5.48009C16.2179 5.42813 13.4163 5.2915 9.99993 5.2915C6.58314 5.2915 3.78129 5.42817 2.83954 5.48013" stroke="var(--icon-stroke, currentColor) " stroke-width="1.3" stroke-linecap="round" stroke-linejoin="round"/>
</svg>
