<svg width="21" height="20" viewBox="0 0 21 20" fill="none" xmlns="http://www.w3.org/2000/svg">
<path d="M11.6728 1.73333C14.6873 3.07138 16.9724 4.82887 18.1537 5.84458C18.7507 6.35792 19.0836 7.09671 19.1248 7.88296C19.1814 8.96271 19.25 10.6523 19.25 12.5001C19.25 13.9216 19.2094 15.2943 19.1649 16.3722C19.1133 17.6226 18.119 18.6089 16.8682 18.6516C15.4264 18.7008 13.287 18.7501 10.5 18.7501C7.713 18.7501 5.57362 18.7008 4.1318 18.6516C2.88102 18.6089 1.88677 17.6227 1.83512 16.3722C1.7906 15.2944 1.75 13.9216 1.75 12.5001C1.75 10.6523 1.81862 8.96267 1.87524 7.88292C1.91648 7.09667 2.24934 6.35792 2.84634 5.84462C4.02763 4.82892 6.31275 3.07139 9.32721 1.73333C10.0736 1.40204 10.9265 1.40204 11.6728 1.73333Z" stroke="var(--icon-stroke, currentColor)" stroke-width="1.3" stroke-linejoin="round"/>
<path d="M14.683 3.32096C16.116 4.20021 17.247 5.07687 17.9988 5.71212C17.995 4.65467 17.9845 3.29583 17.9771 2.41015C17.9725 1.86378 17.6122 1.38038 17.0711 1.30481C16.8432 1.27298 16.5899 1.25 16.3337 1.25C16.0774 1.25 15.8241 1.27298 15.5962 1.30481C15.0551 1.38038 14.6948 1.86378 14.6902 2.41015C14.688 2.6777 14.6855 2.98842 14.683 3.32096Z" stroke="var(--icon-stroke, currentColor)" stroke-width="1.3" stroke-linejoin="round"/>
<path d="M13.4089 18.7312C12.5358 18.7428 11.5652 18.75 10.5001 18.75C9.43484 18.75 8.46426 18.7428 7.59109 18.7312C7.58618 18.0205 7.58334 17.2444 7.58334 16.6821C7.58334 15.579 7.60689 13.6971 7.62305 12.5315C7.63139 11.9347 8.06151 11.4287 8.65472 11.362C9.17089 11.3038 9.82968 11.25 10.5 11.25C11.1703 11.25 11.8291 11.3038 12.3453 11.362C12.9385 11.4287 13.3686 11.9347 13.377 12.5315C13.3931 13.6971 13.4167 15.579 13.4167 16.6821C13.4167 17.2444 13.4138 18.0205 13.4089 18.7312Z" stroke="var(--icon-stroke, currentColor)" stroke-width="1.3" stroke-linejoin="round"/>
</svg>
