<svg width="21" height="20" viewBox="0 0 21 20" fill="none" xmlns="http://www.w3.org/2000/svg">
<g clip-path="url(#clip0_636_21020)">
<path d="M2.32881 18.5561C1.62487 18.4441 1.2996 17.7419 1.60209 17.0964C3.56037 12.9181 7.38415 6.29816 10.5 3.57178C13.6159 6.29816 17.4396 12.9181 19.3979 17.0964C19.7004 17.7419 19.3751 18.4441 18.6712 18.5561C17.3884 18.7602 14.9363 19.0003 10.5 19.0003C6.06369 19.0003 3.61165 18.7602 2.32881 18.5561Z" stroke="var(--icon-stroke, currentColor)" stroke-width="1.3" stroke-linecap="round" stroke-linejoin="round"/>
<path d="M14.1 18.7429C13.2711 16.1187 11.7481 12.1702 10.5 10.5144C9.25194 12.1702 7.72893 16.1187 6.90001 18.7429" stroke="var(--icon-stroke, currentColor)" stroke-width="1.3" stroke-linecap="round" stroke-linejoin="round"/>
<path d="M7.92844 1L10.4999 3.57142" stroke="var(--icon-stroke, currentColor)" stroke-width="1.3" stroke-linecap="round" stroke-linejoin="round"/>
<path d="M13.0713 1L10.4998 3.57142" stroke="var(--icon-stroke, currentColor)" stroke-width="1.3" stroke-linecap="round" stroke-linejoin="round"/>
</g>
<defs>

</defs>
</svg>
