<svg width="24" height="24" viewBox="0 0 24 24" fill="none" xmlns="http://www.w3.org/2000/svg">
<path d="M8.24718 7.22547C8.33576 6.84905 8.67168 6.58301 9.05839 6.58301H14.9442C15.3309 6.58301 15.6668 6.84905 15.7554 7.22547L16.5846 10.7497H7.41797L8.24718 7.22547Z" stroke="currentColor" stroke-width="1.3" stroke-linecap="round" stroke-linejoin="round"/>
<path d="M4.92314 16.9033C4.91988 17.0628 4.91797 17.2343 4.91797 17.4172C4.91797 17.9695 4.93539 18.4178 4.95485 18.7462C4.9772 19.1235 5.26784 19.42 5.6445 19.4509C5.96198 19.4768 6.3683 19.5006 6.79297 19.5006C7.21764 19.5006 7.62397 19.4768 7.94143 19.4509C8.31809 19.42 8.60876 19.1235 8.63109 18.7462C8.65055 18.4178 8.66797 17.9695 8.66797 17.4172C8.66797 17.2642 8.66664 17.1192 8.6643 16.9825" stroke="currentColor" stroke-width="1.3" stroke-linecap="round" stroke-linejoin="round"/>
<path d="M15.3377 16.9817C15.3353 17.1185 15.334 17.2636 15.334 17.4167C15.334 17.969 15.3514 18.4173 15.3709 18.7457C15.3932 19.123 15.6839 19.4195 16.0605 19.4503C16.378 19.4763 16.7843 19.5001 17.209 19.5001C17.6337 19.5001 18.04 19.4763 18.3574 19.4503C18.7341 19.4195 19.0247 19.123 19.0471 18.7457C19.0666 18.4173 19.084 17.969 19.084 17.4167C19.084 17.2336 19.0821 17.062 19.0788 16.9023" stroke="currentColor" stroke-width="1.3" stroke-linecap="round" stroke-linejoin="round"/>
<path d="M6.16797 14.083H7.41797" stroke="currentColor" stroke-width="1.3" stroke-linecap="round" stroke-linejoin="round"/>
<path d="M17.834 14.083H16.584" stroke="currentColor" stroke-width="1.3" stroke-linecap="round" stroke-linejoin="round"/>
<path d="M15.4653 4.5C16.6125 4.5 17.6125 5.28074 17.8907 6.39367L18.3259 8.13462L19.5711 7.9765C20.2104 7.89533 20.8066 8.31346 20.9481 8.94217L20.9688 9.03392C21.0873 9.56067 20.8542 10.104 20.3908 10.3811L19.4672 10.9335C20.3642 11.2609 21.032 12.008 21.1229 13.0222C21.1511 13.3369 21.1673 13.6327 21.1673 13.875V15.2627C21.1673 16.133 20.4983 16.8489 19.6286 16.8825C18.2218 16.937 15.7757 17 11.9891 17C8.21005 17 5.7735 16.9372 4.3718 16.8829C3.50255 16.8492 2.83398 16.1337 2.83398 15.2638V13.875C2.83398 13.6033 2.84592 13.3144 2.86722 13.024C2.94268 11.9953 3.62801 11.2419 4.54444 10.9211L3.62086 10.3787C3.15211 10.1035 2.915 9.55679 3.03433 9.02646L3.05329 8.94217C3.19475 8.31346 3.79098 7.89533 4.43027 7.9765L5.67529 8.13462L6.11053 6.39367C6.38876 5.28074 7.38871 4.5 8.53588 4.5H15.4653Z" stroke="currentColor" stroke-width="1.3" stroke-linecap="round" stroke-linejoin="round"/>
</svg>
