<svg width="20" height="20" viewBox="0 0 20 20" fill="none" xmlns="http://www.w3.org/2000/svg">
<path fill-rule="evenodd" clip-rule="evenodd" d="M10.0809 10.135C10.1441 10.0584 10.1442 9.94954 10.0809 9.87292C9.5194 9.19204 6.85624 5.98204 4.25965 3.1766C3.53978 2.39881 4.01807 1.12428 5.07724 1.08741C5.93482 1.05755 6.85949 1.05057 7.62086 1.10484C8.31507 1.15433 8.95224 1.46399 9.47753 1.92061C11.8148 3.95242 14.1853 6.85738 15.5109 8.57517C16.1635 9.42083 16.163 10.5868 15.5099 11.4321C14.1841 13.1478 11.8142 16.0483 9.47744 18.0789C8.95219 18.5353 8.31515 18.8449 7.62103 18.8944C6.85965 18.9488 5.9349 18.9418 5.07724 18.9119C4.01807 18.875 3.5399 17.6006 4.26003 16.823C6.85632 14.0198 9.51907 10.8151 10.0809 10.135Z" stroke="#0081E9" stroke-width="1.3" stroke-linejoin="round"/>
</svg>
