<svg width="20" height="20" viewBox="0 0 20 20" fill="none" xmlns="http://www.w3.org/2000/svg">
<path fill-rule="evenodd" clip-rule="evenodd" d="M9.91914 10.135C9.85589 10.0584 9.85585 9.94954 9.91906 9.87292C10.4806 9.19204 13.1438 5.98204 15.7403 3.1766C16.4602 2.39881 15.9819 1.12428 14.9228 1.08741C14.0652 1.05755 13.1405 1.05057 12.3791 1.10484C11.6849 1.15433 11.0478 1.46399 10.5225 1.92061C8.18522 3.95242 5.81472 6.85738 4.48914 8.57517C3.83655 9.42083 3.83699 10.5868 4.49014 11.4321C5.81593 13.1478 8.18585 16.0483 10.5226 18.0789C11.0478 18.5353 11.6848 18.8449 12.379 18.8944C13.1403 18.9488 14.0651 18.9418 14.9228 18.9119C15.9819 18.875 16.4601 17.6006 15.74 16.823C13.1437 14.0198 10.4809 10.8151 9.91914 10.135Z" stroke="#0081E9" stroke-width="1.3" stroke-linejoin="round"/>
</svg>
