<svg width="20" height="20" viewBox="0 0 20 20" fill="none" xmlns="http://www.w3.org/2000/svg">
<g clip-path="url(#clip0_607_2110)">
<path d="M3.93945 16.0607L16.0607 3.93945Z" fill="currentColor"/>
<path d="M3.93942 16.6667C3.78091 16.6667 3.63173 16.6108 3.51052 16.4895C3.27742 16.2564 3.27742 15.8648 3.51052 15.6317L15.6317 3.51052C15.8648 3.27742 16.2564 3.27742 16.4895 3.51052C16.7226 3.74362 16.7226 4.13523 16.4895 4.36833L4.36833 16.4895C4.24712 16.6108 4.09793 16.6667 3.93942 16.6667Z" fill="currentColor"/>
<path d="M16.0607 16.0607L3.93945 3.93945Z" fill="currentColor"/>
<path d="M16.0606 16.6667C15.9021 16.6667 15.7529 16.6108 15.6317 16.4895L3.51052 4.36833C3.27742 4.13523 3.27742 3.74362 3.51052 3.51052C3.74362 3.27742 4.13523 3.27742 4.36833 3.51052L16.4895 15.6317C16.7226 15.8648 16.7226 16.2564 16.4895 16.4895C16.3683 16.6108 16.2191 16.6667 16.0606 16.6667Z" fill="currentColor"/>
</g>
<defs>
<clipPath id="clip0_607_2110">
<rect width="13.3333" height="13.3333" fill="white" transform="translate(3.33337 3.33337)"/>
</clipPath>
</defs>
</svg>
