<svg width="20" height="20" viewBox="0 0 20 20" fill="none" xmlns="http://www.w3.org/2000/svg">
<g clip-path="url(#clip0_396_102039)">
<path d="M3.93939 16.0606L16.0606 3.93939L3.93939 16.0606Z" fill="#414141"/>
<path d="M3.93939 16.6667C3.78088 16.6667 3.6317 16.6107 3.51049 16.4895C3.27739 16.2564 3.27739 15.8648 3.51049 15.6317L15.6317 3.51049C15.8648 3.27739 16.2564 3.27739 16.4895 3.51049C16.7226 3.74359 16.7226 4.1352 16.4895 4.3683L4.3683 16.4895C4.24708 16.6107 4.0979 16.6667 3.93939 16.6667Z" fill="#414141"/>
<path d="M16.0606 16.0606L3.93939 3.93939L16.0606 16.0606Z" fill="#414141"/>
<path d="M16.0606 16.6667C15.9021 16.6667 15.7529 16.6107 15.6317 16.4895L3.51049 4.3683C3.27739 4.1352 3.27739 3.74359 3.51049 3.51049C3.74359 3.27739 4.1352 3.27739 4.3683 3.51049L16.4895 15.6317C16.7226 15.8648 16.7226 16.2564 16.4895 16.4895C16.3683 16.6107 16.2191 16.6667 16.0606 16.6667Z" fill="#414141"/>
</g>
<defs>
<clipPath id="clip0_396_102039">
<rect width="13.3333" height="13.3333" fill="white" transform="translate(3.33333 3.33334)"/>
</clipPath>
</defs>
</svg>
