<svg width="24" height="24" viewBox="0 0 24 24" fill="none" xmlns="http://www.w3.org/2000/svg">
<path fill-rule="evenodd" clip-rule="evenodd" d="M8.99499 3.02769C8.84588 3.07843 8.71702 3.17494 8.62717 3.30318L8.54963 3.41632L8.54167 5.97835L8.53273 8.54137H3.47562L3.33645 8.61417C2.81056 8.88868 2.92587 9.66693 3.51042 9.78696C3.62077 9.80959 4.58208 9.81746 6.50472 9.81156L9.33697 9.80369L9.47714 9.72498C9.55418 9.68239 9.62178 9.62491 9.67592 9.55595C9.73005 9.48699 9.76963 9.40795 9.79228 9.32355C9.84 9.15531 9.83602 3.65934 9.7883 3.4724C9.76589 3.39155 9.72756 3.31587 9.67552 3.24971C9.62347 3.18356 9.55873 3.12823 9.48502 3.08691C9.4113 3.04558 9.33007 3.01908 9.24597 3.00892C9.16188 2.99876 9.07659 3.00513 8.99499 3.02769ZM14.5511 3.07688C14.4508 3.12375 14.3645 3.19563 14.3006 3.28547L14.2161 3.4114V9.40226L14.2917 9.51246C14.3911 9.6561 14.5472 9.75843 14.7122 9.7909C14.8872 9.82435 20.3141 9.82435 20.4881 9.7909C20.6274 9.76801 20.7543 9.69769 20.8469 9.59207C20.9395 9.48644 20.9919 9.35215 20.9951 9.21237C21.0066 9.12541 20.9978 9.03697 20.9694 8.9539C20.941 8.87082 20.8936 8.79532 20.831 8.73322C20.662 8.54825 20.8062 8.55809 18.0256 8.54137L15.4757 8.52562L15.4598 5.97146C15.4419 3.13297 15.4568 3.30711 15.2311 3.14182C15.0065 2.97653 14.7957 2.95685 14.5511 3.07688ZM3.45574 14.2243C2.91196 14.3709 2.83541 15.1235 3.33645 15.3852L3.47562 15.4581H8.53273L8.54167 18.026L8.54963 20.5929L8.64705 20.713C8.84588 20.957 9.08347 21.0445 9.35487 20.9727C9.45746 20.9374 9.55019 20.8787 9.62551 20.8012C9.70083 20.7238 9.7566 20.6298 9.7883 20.527C9.83602 20.3401 9.84 14.8441 9.79228 14.6759C9.76963 14.5915 9.73005 14.5124 9.67592 14.4435C9.62178 14.3745 9.55418 14.317 9.47714 14.2744L9.33697 14.1967L6.47191 14.1898C4.19835 14.1849 3.57603 14.1928 3.45574 14.2243ZM14.6983 14.2105C14.5328 14.2496 14.3879 14.3481 14.2917 14.487L14.2161 14.5972L14.2082 17.5557L14.1992 20.5152L14.2678 20.6539C14.3171 20.7393 14.3838 20.8135 14.4638 20.8718C14.5437 20.9301 14.6351 20.9712 14.7321 20.9924C14.9637 21.0357 15.2749 20.8891 15.3892 20.6825C15.4399 20.591 15.4449 20.3844 15.4598 18.0289L15.4757 15.4738L18.0256 15.4581C20.8062 15.4413 20.662 15.4512 20.831 15.2662C20.8936 15.2041 20.941 15.1286 20.9694 15.0455C20.9978 14.9624 21.0066 14.874 20.9951 14.787C20.9919 14.6473 20.9395 14.513 20.8469 14.4074C20.7543 14.3017 20.6274 14.2314 20.4881 14.2085C20.325 14.178 14.8613 14.179 14.6983 14.2105Z" fill="#414141"/>
</svg>
