  <svg viewBox="0 0 22 22" fill="none" xmlns="http://www.w3.org/2000/svg">
    <path d="M10.2127 2.89075V6.07828V2.89075Z" fill="white" />
    <path
      d="M10.2127 2.89075V6.07828"
      stroke="currentColor"
      stroke-width="1.3"
      stroke-linecap="round"
      stroke-linejoin="round"
    />
    <path
      d="M19.6039 11.5429C19.6962 10.4681 19.7754 9.02062 19.7754 7.21687C19.7754 4.91946 19.647 3.20001 19.5266 2.09259C19.4327 1.22943 18.694 0.605412 17.8271 0.652524C14.8279 0.815499 12.8498 1.49468 10.6525 2.6542C10.3776 2.7993 10.0479 2.7993 9.77292 2.6542C7.57564 1.49468 5.59753 0.815499 2.59838 0.652524C1.7314 0.605412 0.992783 1.22943 0.8989 2.09259C0.778451 3.20001 0.650024 4.91946 0.650024 7.21687C0.650024 9.51428 0.778451 11.2337 0.8989 12.3411C0.992783 13.2043 1.7314 13.811 2.59838 13.8581C4.43884 13.9581 5.8948 14.2525 7.25284 14.733"
      fill="white"
    />
    <path
      d="M19.6039 11.5429C19.6962 10.4681 19.7754 9.02062 19.7754 7.21687C19.7754 4.91946 19.647 3.20001 19.5266 2.09259C19.4327 1.22943 18.6941 0.605412 17.8271 0.652524C14.8279 0.815499 12.8498 1.49468 10.6525 2.6542C10.3776 2.7993 10.0479 2.7993 9.77292 2.6542C7.57564 1.49468 5.59753 0.815499 2.59838 0.652524C1.7314 0.605412 0.992783 1.22943 0.8989 2.09259C0.778451 3.20001 0.650024 4.91946 0.650024 7.21687C0.650024 9.51428 0.778451 11.2337 0.8989 12.3411C0.992783 13.2043 1.7314 13.811 2.59838 13.8581C4.43884 13.9581 5.8948 14.2525 7.25284 14.733"
      stroke="currentColor"
      stroke-width="1.3"
      stroke-linecap="round"
      stroke-linejoin="round"
    />
    <path
      d="M20.0887 20.65C20.5371 19.3557 20.7953 18.272 20.9436 17.4344C21.1612 16.2057 20.4894 15.0498 19.3325 14.5824C17.3889 13.7971 15.4495 13.3642 15.4495 13.3642C15.4495 12.5838 15.3705 10.9416 15.3055 9.72365C15.2572 8.81711 14.6648 8.01235 13.7609 7.92728C13.5793 7.91021 13.3871 7.89978 13.1882 7.89978C12.9443 7.89978 12.709 7.92127 12.49 7.95492C11.6268 8.08748 11.1235 8.90919 11.1235 9.78249V14.7303L10.4118 15.317C9.71714 15.8896 9.32639 16.7727 9.49628 17.6568C9.76313 19.0455 10.1856 19.886 10.5717 20.65"
      fill="white"
    />
    <path
      d="M20.0887 20.65C20.5371 19.3557 20.7953 18.272 20.9436 17.4344C21.1612 16.2057 20.4894 15.0498 19.3325 14.5824C17.3889 13.7971 15.4495 13.3642 15.4495 13.3642C15.4495 12.5838 15.3705 10.9416 15.3055 9.72365C15.2572 8.81711 14.6648 8.01235 13.7609 7.92728C13.5793 7.91021 13.3871 7.89978 13.1882 7.89978C12.9443 7.89978 12.709 7.92127 12.49 7.95492C11.6268 8.08748 11.1235 8.90919 11.1235 9.78249V14.7303L10.4118 15.317C9.71714 15.8896 9.32639 16.7727 9.49628 17.6568C9.76313 19.0455 10.1856 19.886 10.5717 20.65"
      stroke="currentColor"
      stroke-width="1.3"
      stroke-linecap="round"
      stroke-linejoin="round"
    />
  </svg>
