<svg width="24" height="24" viewBox="0 0 24 24" fill="none" xmlns="http://www.w3.org/2000/svg">
<path fill-rule="evenodd" clip-rule="evenodd" d="M4.50141 11.2751C4.35504 11.3189 4.22622 11.4152 4.13541 11.5486C4.0446 11.6819 3.99699 11.8447 4.00015 12.0112C4.00331 12.1776 4.05705 12.3381 4.15284 12.4672C4.24863 12.5963 4.38099 12.6866 4.52889 12.7237C4.62721 12.7469 6.94345 12.7539 12.0844 12.7481C20.3313 12.7388 19.5913 12.7597 19.7996 12.5312C19.8663 12.4636 19.9187 12.3808 19.9532 12.2886C19.9877 12.1965 20.0035 12.0972 19.9994 11.9977C20.0035 11.8981 19.9877 11.7988 19.9532 11.7067C19.9187 11.6145 19.8663 11.5317 19.7996 11.4641C19.5913 11.2356 20.3355 11.2554 12.0559 11.2507C7.49317 11.2472 4.57012 11.2565 4.50141 11.2751Z" fill="currentColor"/>
</svg>
