<svg width="20" height="21" viewBox="0 0 20 21" fill="none" xmlns="http://www.w3.org/2000/svg">
<path d="M0.655234 17.7254C0.762617 18.8365 1.58189 19.5093 2.45328 19.5424C3.75906 19.5922 6.04946 19.6498 9.64934 19.6498C13.2493 19.6498 15.5397 19.5922 16.8454 19.5424C17.7168 19.5093 18.5361 18.8365 18.6435 17.7254C18.7011 17.129 18.3274 16.6365 17.8598 16.6154C16.691 16.5626 14.1788 16.4832 9.64934 16.4832C5.11995 16.4832 2.60773 16.5626 1.43894 16.6154C0.971311 16.6365 0.597594 17.129 0.655234 17.7254Z" stroke="var(--icon-stroke, currentColor) " stroke-width="1.3" stroke-linejoin="round"/>
<path d="M1.8443 14.2176C1.8443 8.45646 5.16623 3.81592 9.65181 3.81592C14.1374 3.81592 17.4593 8.45646 17.4593 14.2176L17.4593 14.3716C17.4593 15.5375 16.724 16.4824 15.8163 16.4824L9.65181 16.4824L3.48737 16.4824C2.57959 16.4824 1.8443 15.5375 1.8443 14.3716L1.8443 14.2176Z"  stroke="var(--icon-stroke, currentColor) " stroke-width="1.3" stroke-linejoin="round"/>
<path d="M8.58564 0.750374C7.95142 0.884128 7.68572 1.69484 7.88082 2.48133C8.02226 3.05137 8.16633 3.54748 8.29795 3.96099C8.73377 3.86599 9.18439 3.81654 9.64738 3.81654C10.1104 3.81654 10.561 3.86599 10.9968 3.96099C11.1284 3.54748 11.2725 3.05137 11.4139 2.48134C11.609 1.69484 11.3433 0.884128 10.7091 0.750374C10.4278 0.691053 10.0777 0.649902 9.64738 0.649902C9.2171 0.649902 8.86691 0.691053 8.58564 0.750374Z" stroke="var(--icon-stroke, currentColor) " stroke-width="1.3" stroke-linejoin="round"/>
<path d="M10.058 6.98315C11.8511 7.00147 13.3539 8.25741 14.1672 10.1498" stroke="var(--icon-stroke, currentColor) " stroke-width="1.3" stroke-linecap="round" stroke-linejoin="round"/>
</svg>
