<svg width="20" height="21" viewBox="0 0 20 21" fill="none" xmlns="http://www.w3.org/2000/svg">
<path d="M9.4041 1.68712C9.61581 2.97203 9.91192 5.2168 9.88813 7.61415C9.87586 8.85134 9.07189 9.96009 7.80776 10.2513C7.54687 10.3115 7.26835 10.3655 6.97756 10.4078L7.8257 17.9623C7.9547 19.1117 7.26184 20.2392 6.14625 20.3946C5.99709 20.4154 5.86126 20.4277 5.74954 20.4277C5.63785 20.4277 5.50203 20.4154 5.35287 20.3946C4.23732 20.2393 3.54441 19.1117 3.67346 17.9623L4.52156 10.4077C4.23081 10.3655 3.95238 10.3114 3.69149 10.2513C2.42732 9.96009 1.6233 8.85125 1.61103 7.61401C1.58724 5.21693 1.88282 2.97248 2.09422 1.68753C2.20201 1.03259 2.75918 0.572266 3.4054 0.572266H8.09306C8.73914 0.572266 9.29627 1.03241 9.4041 1.68712Z" fill="white" stroke="currentColor" stroke-linecap="round" stroke-linejoin="round"/>
<path d="M4.59941 0.572266L4.36945 5.77247L4.59941 0.572266Z" fill="white"/>
<path d="M4.59941 0.572266L4.36945 5.77247" stroke="currentColor" stroke-linecap="round" stroke-linejoin="round"/>
<path d="M6.89929 0.572266L7.12926 5.77247L6.89929 0.572266Z" fill="white"/>
<path d="M6.89929 0.572266L7.12926 5.77247" stroke="currentColor" stroke-linecap="round" stroke-linejoin="round"/>
<path d="M17.3745 0.637187C15.6077 1.98543 13.1393 5.70289 12.8911 11.4431C12.8654 12.0377 13.1466 12.6004 13.6718 12.8511C14.0469 13.0301 14.5537 13.2332 15.1923 13.4063C15.4247 13.4692 15.5802 13.6983 15.5462 13.9429L14.9826 17.9977C14.826 19.1245 15.2554 20.1341 16.3231 20.436C17.3218 20.7184 18.3903 20.0368 18.3903 18.9723V1.28347C18.3903 0.676754 17.8485 0.275526 17.3745 0.637187Z" fill="white" stroke="currentColor" stroke-linejoin="round"/>
</svg>
