<svg width="24" height="24" viewBox="0 0 24 24" fill="none" xmlns="http://www.w3.org/2000/svg">
<path fill-rule="evenodd" clip-rule="evenodd" d="M3.57955 3.02162C3.42814 3.04642 3.28901 3.1193 3.18318 3.22923C2.99113 3.4291 3.00006 3.2745 3.00006 6.48464C3.00118 9.27406 3.00453 9.42534 3.05924 9.5446C3.31605 10.0923 4.14229 10.0691 4.38012 9.50595C4.41473 9.42424 4.42366 8.93394 4.42366 6.91752V4.42847H6.88342C8.56494 4.42847 9.38225 4.41743 9.46934 4.39424C9.57283 4.3574 9.66533 4.29552 9.73843 4.21424C10.0332 3.91388 10.0321 3.50419 9.7362 3.21156C9.51512 2.99291 9.71275 3.00616 6.5585 3.00064C4.9931 2.99733 3.65213 3.00727 3.57955 3.02162ZM14.6367 3.02162C14.5401 3.03951 14.4482 3.07674 14.3667 3.13103C14.2851 3.18532 14.2157 3.25552 14.1625 3.33732C14.1094 3.41911 14.0738 3.51079 14.0578 3.60671C14.0418 3.70263 14.0458 3.80077 14.0695 3.89511C14.1199 4.07484 14.2366 4.22933 14.3967 4.32798L14.5262 4.41301L17.0507 4.42185L19.5752 4.43068L19.5842 6.95617L19.592 9.48166L19.6802 9.61417C19.7397 9.70541 19.8192 9.78221 19.9128 9.83886C20.0065 9.89551 20.1118 9.93055 20.2211 9.94137C20.3303 9.95219 20.4406 9.93852 20.5437 9.90138C20.6469 9.86423 20.7402 9.80456 20.8168 9.72681C21.0089 9.52694 20.9999 9.68154 20.9999 6.47139C20.9988 3.68198 20.9955 3.53069 20.9408 3.41143C20.865 3.25475 20.7345 3.13042 20.5734 3.06138C20.4551 3.00837 20.2697 3.00506 17.6157 3.00064C16.0581 2.99843 14.7171 3.00727 14.6367 3.02162ZM3.5695 14.0644C3.45501 14.0862 3.34768 14.1354 3.25695 14.2078C3.16621 14.2802 3.09487 14.3736 3.04919 14.4796C3.00565 14.5812 3.00006 14.9467 3.00006 17.5297C3.00118 20.3003 3.00453 20.4715 3.05924 20.5896C3.14391 20.756 3.28791 20.8854 3.46343 20.9529C3.63761 21.0148 9.31638 21.0159 9.48944 20.9551C9.57575 20.9179 9.65474 20.866 9.7228 20.8016C10.0165 20.5189 10.0388 20.1247 9.77974 19.8243C9.54862 19.5582 9.73062 19.5737 6.91468 19.5726H4.42366V17.0835C4.42366 15.0428 4.41585 14.5768 4.38012 14.4929C4.31247 14.3424 4.19601 14.2186 4.04919 14.141C3.90236 14.0634 3.73356 14.0365 3.5695 14.0644ZM20.1491 14.0699C19.9568 14.1093 19.7882 14.2225 19.6802 14.3847L19.592 14.515L19.5842 17.0438L19.5752 19.5726H17.1166C15.4351 19.5726 14.6177 19.5836 14.5307 19.6068C14.3554 19.6543 14.1276 19.8906 14.074 20.0828C14.0265 20.2488 14.0407 20.4262 14.1141 20.5827C14.1874 20.7393 14.315 20.8648 14.4737 20.9364C14.5898 20.9938 14.7104 20.996 17.5051 20.996C20.6817 20.996 20.5511 21.0026 20.771 20.8127C21.0133 20.6018 20.9988 20.816 20.9999 17.5297C20.9999 14.3195 21.0089 14.4741 20.8168 14.2742C20.7325 14.1865 20.6269 14.1216 20.5099 14.0858C20.393 14.0501 20.2688 14.0446 20.1491 14.0699Z" fill="#414141"/>
</svg>
