<svg width="24" height="24" viewBox="0 0 24 24" fill="none" xmlns="http://www.w3.org/2000/svg">
<g clip-path="url(#clip0_3029_20964)">
<path d="M8.7832 3.55477C8.7832 4.40846 9.12233 5.22719 9.72598 5.83083C10.3296 6.43448 11.1484 6.77361 12.002 6.77361C12.8557 6.77361 13.6745 6.43448 14.2781 5.83083C14.8817 5.22719 15.2209 4.40846 15.2209 3.55477C15.2209 2.70109 14.8817 1.88236 14.2781 1.27871C13.6745 0.675064 12.8557 0.335938 12.002 0.335938C11.1484 0.335938 10.3296 0.675064 9.72598 1.27871C9.12233 1.88236 8.7832 2.70109 8.7832 3.55477Z" stroke="currentColor" stroke-linejoin="round"/>
<path d="M7.87277 7.10272C8.46445 6.85423 9.10918 6.77344 9.75091 6.77344H12.1372C13.411 6.77344 14.5758 7.38947 15.5439 8.21746C16.8186 9.30752 18.0847 9.73863 19.8387 9.91046C20.5317 9.97838 21.0632 10.5782 20.9939 11.2711L20.9681 11.5293C20.9007 12.2026 20.3833 12.7514 19.7096 12.8145C16.8841 13.0794 15.5467 12.5245 13.8794 11.3336L13.6111 13.7477C16.9741 15.9111 17.9951 19.4147 18.3048 21.3928C18.4434 22.2779 17.8807 23.0771 17.038 23.3813L17.0026 23.3941C16.2148 23.6785 15.3448 23.1814 15.0834 22.3856C14.5721 20.8284 13.5019 18.5214 11.4653 17.503C10.7364 20.7828 8.76986 22.5773 7.5834 23.391C7.01517 23.7807 6.28701 23.7307 5.69614 23.3762L5.40848 23.2036C4.73306 22.7984 4.71032 21.82 5.2866 21.2831C8.37646 18.4039 8.60055 14.4217 9.05108 10.2605C7.26543 11.3766 6.40847 12.1212 5.86196 14.04C5.66476 14.7323 4.96064 15.1761 4.27109 14.9692L4.00802 14.8903C3.34901 14.6926 2.90272 14.0627 3.0182 13.3844C3.53549 10.3461 5.24861 8.20475 7.87277 7.10272Z" stroke="currentColor" stroke-linejoin="round"/>
</g>
<defs>
<clipPath id="clip0_3029_20964">
<rect width="24" height="24" fill="white"/>
</clipPath>
</defs>
</svg>
