<svg width="20" height="21" viewBox="0 0 20 21" fill="none" xmlns="http://www.w3.org/2000/svg">
<g clip-path="url(#clip0_321_6743)">
<path d="M2.11583 12.7128C2.17863 14.651 3.45187 16.1008 5.38619 16.2395C6.17094 16.2957 7.14152 16.3334 8.33331 16.3334C9.5251 16.3334 10.4957 16.2957 11.2804 16.2395C13.2148 16.1008 14.488 14.651 14.5508 12.7128C14.5708 12.0969 14.5833 11.3655 14.5833 10.5001C14.5833 8.42479 14.5111 6.97862 14.4378 6.04529C14.3749 5.24341 13.7019 4.66675 12.8975 4.66675H8.33331H3.76913C2.96478 4.66675 2.29178 5.24341 2.22882 6.04529C2.15553 6.97862 2.08331 8.42479 2.08331 10.5001C2.08331 11.3655 2.09587 12.0969 2.11583 12.7128Z"  stroke="var(--icon-stroke, currentColor) " stroke-width="1.3" stroke-linejoin="round"/>
<path d="M12.9167 4.66675H15.68C16.8187 4.66675 17.8072 5.44275 17.8832 6.57887C17.9037 6.88541 17.9167 7.22196 17.9167 7.58341C17.9167 7.94487 17.9037 8.28141 17.8832 8.58796C17.8072 9.72408 16.8187 10.5001 15.68 10.5001H14.5833" stroke="var(--icon-stroke, currentColor) " stroke-width="1.3" stroke-linecap="round" stroke-linejoin="round"/>
<path d="M5.08331 9.08325L6.24998 8.20825L7.41665 9.08325C7.7314 9.31934 7.91665 9.68979 7.91665 10.0833V11.6073C7.91665 12.1809 7.52556 12.685 6.9556 12.7491C6.73398 12.774 6.49198 12.7916 6.24998 12.7916C6.00798 12.7916 5.76598 12.774 5.54435 12.7491C4.9744 12.685 4.58331 12.1809 4.58331 11.6073V10.0833C4.58331 9.68979 4.76856 9.31934 5.08331 9.08325Z" stroke="var(--icon-stroke, currentColor) " stroke-width="1.3" stroke-linejoin="round"/>
<path d="M6.24997 8.20841V4.66675" stroke="var(--icon-stroke, currentColor) " stroke-width="1.3" stroke-linecap="round" stroke-linejoin="round"/>
</g>
<defs>
<clipPath id="clip0_321_6743">
<rect width="20" height="21" />
</clipPath>
</defs>
</svg>
