<svg width="21" height="21" viewBox="0 0 21 21" fill="none" xmlns="http://www.w3.org/2000/svg">
<path d="M6.77523 18.3275C5.35312 18.3275 4.26562 17.1695 4.26562 15.6552C4.26562 14.1409 5.35312 12.9829 6.77523 12.9829C8.19735 12.9829 9.28484 14.1409 9.28484 15.6552C9.28484 17.1695 8.19735 18.3275 6.77523 18.3275ZM6.77523 14.3191C6.10601 14.3191 5.52043 14.9426 5.52043 15.6552C5.52043 16.3678 6.10601 16.9914 6.77523 16.9914C7.44446 16.9914 8.03004 16.4569 8.03004 15.6552C8.03004 14.8535 7.44446 14.3191 6.77523 14.3191Z" fill="var(--icon-stroke, currentColor)"/>
<path d="M17.4836 18.3329H10.5403C10.2057 18.3329 9.87109 18.1494 9.87109 17.704V13.6955C9.87109 13.3392 10.1221 12.9829 10.5403 12.9829H15.8105C17.0653 12.9829 18.1528 14.0518 18.1528 15.4771V17.704C18.0692 18.0603 17.8182 18.3329 17.4836 18.3329ZM11.2096 17.0804H16.898V15.4771C16.898 14.8535 16.3961 14.3191 15.8105 14.3191H11.2096V17.0804Z" fill="var(--icon-stroke, currentColor)"/>
<path d="M3.68485 21.0001C3.35024 21.0001 3.01562 20.7329 3.01562 20.2875V17.6152C3.01562 17.2589 3.26659 16.9026 3.68485 16.9026H10.5445C10.8791 16.9026 11.2137 17.1698 11.2137 17.6152C11.2137 18.0606 10.9627 18.3278 10.5445 18.3278H4.27043V20.3766C4.27043 20.7329 4.01947 21.0001 3.68485 21.0001Z" fill="var(--icon-stroke, currentColor)"/>
<path d="M17.4856 21.0001C17.151 21.0001 16.8164 20.7329 16.8164 20.2875V17.6152C16.8164 17.2589 17.0674 16.9026 17.4856 16.9026C17.9039 16.9026 18.1549 17.1698 18.1549 17.6152V20.2875C18.0712 20.7329 17.8202 21.0001 17.4856 21.0001Z" fill="var(--icon-stroke, currentColor)"/>
<path d="M17.4856 11.6551C17.151 11.6551 16.8164 11.3952 16.8164 10.9621V5.4181C16.8164 5.0716 17.0674 4.7251 17.4856 4.7251C17.9039 4.7251 18.0712 5.0716 18.0712 5.4181V11.0487C18.0712 11.3952 17.8202 11.6551 17.4856 11.6551Z" fill="var(--icon-stroke, currentColor)"/>
<path d="M3.68485 11.6546C3.26659 11.6546 3.01562 11.3947 3.01562 11.0482V5.41761C3.01562 5.07111 3.26659 4.72461 3.68485 4.72461C4.10312 4.72461 4.35408 4.98448 4.35408 5.41761V11.0482C4.27043 11.3947 4.01947 11.6546 3.68485 11.6546Z" fill="var(--icon-stroke, currentColor)"/>
<path d="M19.911 7.72741C19.8274 7.72741 19.6601 7.72741 19.5764 7.63834L10.8764 1.40296C10.6255 1.22481 10.3745 1.22481 10.2072 1.40296L1.50723 7.54926C1.17262 7.81649 0.838004 7.72741 0.587043 7.37111C0.419736 7.10388 0.50339 6.65849 0.75435 6.48034L9.45433 0.334038C10.1236 -0.111346 10.8764 -0.111346 11.5457 0.334038L20.2456 6.48034C20.4966 6.65849 20.5803 7.10388 20.413 7.37111C20.3293 7.54926 20.162 7.72741 19.911 7.72741Z" fill="var(--icon-stroke, currentColor)"/>
</svg>
