<svg width="24" height="24" viewBox="0 0 24 24" fill="none" xmlns="http://www.w3.org/2000/svg">
<path fill-rule="evenodd" clip-rule="evenodd" d="M11.8553 4.01178C11.7404 4.03384 11.6326 4.08312 11.5412 4.1554C11.4497 4.22769 11.3773 4.32083 11.3301 4.42687C11.2723 4.55067 11.2723 4.57043 11.2639 7.91509L11.2566 11.2795H7.93131C5.72671 11.2795 4.57137 11.2889 4.50205 11.3086C4.21847 11.3867 4.0021 11.6842 4 11.9984C3.99895 12.3126 4.21637 12.6142 4.50205 12.6923C4.57137 12.712 5.72671 12.7214 7.93131 12.7214H11.2566L11.2639 16.0858C11.2723 19.4305 11.2723 19.4502 11.3301 19.574C11.3795 19.6818 11.4547 19.776 11.5493 19.8484C11.6438 19.9207 11.7548 19.9691 11.8725 19.9893C11.9902 20.0095 12.1111 20.0009 12.2247 19.9643C12.3384 19.9276 12.4412 19.864 12.5243 19.779C12.7449 19.5491 12.727 19.8539 12.7365 16.0858L12.7438 12.7214H16.0691C18.2737 12.7214 19.429 12.712 19.4984 12.6923C19.679 12.6309 19.8292 12.5037 19.9185 12.3365C19.9963 12.1855 20.0193 12.0126 19.9836 11.8468C19.9478 11.681 19.8554 11.5325 19.7221 11.4262C19.654 11.3759 19.5786 11.3363 19.4984 11.3086C19.429 11.2889 18.2737 11.2795 16.0691 11.2795H12.7438L12.7365 7.91509C12.7281 4.56731 12.7281 4.55067 12.6692 4.42687C12.5985 4.2787 12.4804 4.15776 12.3333 4.08273C12.1861 4.0077 12.0181 3.98277 11.8553 4.01178Z" fill="currentColor"/>
</svg>
