<svg width="15" height="28" viewBox="0 0 15 28" fill="none" xmlns="http://www.w3.org/2000/svg">
<path d="M8.4375 17.4271C7.66188 17.4271 7.03125 16.7768 7.03125 15.9771V13.5604H6.5625C6.30375 13.5604 6.09375 13.3439 6.09375 13.0771C6.09375 12.8103 6.30375 12.5938 6.5625 12.5938H7.03125C7.54813 12.5938 7.96875 13.0275 7.96875 13.5604V15.9771C7.96875 16.2439 8.17875 16.4604 8.4375 16.4604H8.90625C9.165 16.4604 9.375 16.677 9.375 16.9438C9.375 17.2106 9.165 17.4271 8.90625 17.4271H8.4375Z" fill="currentColor"/>
<path d="M7.26562 11.6562C7.65395 11.6562 7.96875 11.3415 7.96875 10.9531C7.96875 10.5648 7.65395 10.25 7.26562 10.25C6.8773 10.25 6.5625 10.5648 6.5625 10.9531C6.5625 11.3415 6.8773 11.6562 7.26562 11.6562Z" fill="currentColor"/>
<path d="M7.5 21.5C3.36437 21.5 0 18.1356 0 14C0 9.86437 3.36437 6.5 7.5 6.5C11.6356 6.5 15 9.86437 15 14C15 18.1356 11.6356 21.5 7.5 21.5ZM7.5 7.4375C3.88125 7.4375 0.9375 10.3812 0.9375 14C0.9375 17.6187 3.88125 20.5625 7.5 20.5625C11.1187 20.5625 14.0625 17.6187 14.0625 14C14.0625 10.3812 11.1187 7.4375 7.5 7.4375Z" fill="currentColor"/>
</svg>
