<svg width="22" height="23" viewBox="0 0 22 23" fill="none" xmlns="http://www.w3.org/2000/svg">
<path d="M9.28638 8.61572C9.33901 9.28651 9.40288 10.0212 9.4737 10.7881M19.2864 8.61572C18.9946 12.334 18.3581 18.016 18.1011 20.2608C18.0343 20.8435 17.6408 21.3193 17.0954 21.4145C16.444 21.5284 15.4703 21.6502 14.2864 21.6502" stroke="var(--icon-stroke, currentColor) " stroke-width="1.3" stroke-linecap="round" stroke-linejoin="round"/>
<path d="M1.55902 19.719C1.55902 20.7774 2.45538 21.5161 3.45063 21.5691C4.27002 21.6128 5.43243 21.6501 7.01357 21.6501C8.5947 21.6501 9.75711 21.6128 10.5765 21.5691C11.5717 21.5161 12.4681 20.7774 12.4681 19.719C12.4681 18.9949 12.2084 18.2708 12.2084 18.2708H7.01357H1.81876C1.81876 18.2708 1.55902 18.9949 1.55902 19.719Z" stroke="var(--icon-stroke, currentColor) " stroke-width="1.3" stroke-linejoin="round"/>
<path d="M1.55902 16.4604C1.55902 14.8079 2.85308 13.5583 4.40775 13.4929C5.10838 13.4634 5.96975 13.4431 7.01357 13.4431C8.05738 13.4431 8.91875 13.4634 9.61938 13.4929C11.1741 13.5583 12.4681 14.8079 12.4681 16.4604C12.4681 17.3655 12.2084 18.2707 12.2084 18.2707H7.01357H1.81876C1.81876 18.2707 1.55902 17.3655 1.55902 16.4604Z" stroke="var(--icon-stroke, currentColor) " stroke-width="1.3" stroke-linejoin="round"/>
<path d="M13.3773 18.2708H0.650024" stroke="var(--icon-stroke, currentColor) " stroke-width="1.3" stroke-linecap="round"/>
<path d="M7.93258 6.75944C7.95735 6.283 8.30767 5.96182 8.75494 5.91693C9.60017 5.83211 11.2882 5.71924 14.2863 5.71924H14.3296C17.3007 5.72035 18.9765 5.83254 19.8177 5.91693C20.2649 5.96182 20.6153 6.283 20.64 6.75944C20.6462 6.87844 20.6499 7.01395 20.6499 7.16751C20.6499 7.32108 20.6462 7.45659 20.64 7.57559C20.6153 8.05202 20.2649 8.3732 19.8177 8.4181C18.9724 8.50292 17.2844 8.61578 14.2863 8.61578C11.2882 8.61578 9.60017 8.50292 8.75494 8.4181C8.30767 8.3732 7.95735 8.05202 7.93258 7.57559C7.92644 7.45659 7.92267 7.32113 7.92267 7.16751C7.92267 7.0139 7.92644 6.87844 7.93258 6.75944Z" stroke="var(--icon-stroke, currentColor) " stroke-width="1.3"/>
<path d="M18.8319 0.650146L15.4755 1.04623C15.0476 1.09672 14.7117 1.45909 14.6709 1.9143L14.3297 5.7191" stroke="var(--icon-stroke, currentColor) " stroke-width="1.3" stroke-linecap="round"/>
</svg>
