<svg width="14" height="24" viewBox="0 0 14 24" fill="none" xmlns="http://www.w3.org/2000/svg">
<path d="M7 2.5C8.72391 2.5 10.3777 3.18433 11.5967 4.40332C12.8157 5.62231 13.5 7.27609 13.5 9C13.5 10.2113 13.0936 11.6058 12.4502 13.042C11.8097 14.4716 10.9515 15.9066 10.0859 17.1895C9.22135 18.4709 8.35488 19.591 7.70508 20.3916C7.42337 20.7387 7.18198 21.0246 7 21.2373C6.81802 21.0246 6.57663 20.7387 6.29492 20.3916C5.64512 19.591 4.77865 18.4709 3.91406 17.1895C3.04854 15.9066 2.19028 14.4716 1.5498 13.042C0.906389 11.6058 0.5 10.2113 0.5 9C0.5 7.27609 1.18433 5.62231 2.40332 4.40332C3.62231 3.18433 5.27609 2.5 7 2.5ZM7 6C6.20435 6 5.44152 6.3163 4.87891 6.87891C4.3163 7.44152 4 8.20435 4 9C4 9.79565 4.3163 10.5585 4.87891 11.1211C5.44152 11.6837 6.20435 12 7 12C7.39397 12 7.78446 11.9222 8.14844 11.7715C8.51226 11.6207 8.84262 11.3996 9.12109 11.1211C9.39957 10.8426 9.62072 10.5123 9.77148 10.1484C9.92225 9.78446 10 9.39397 10 9C10 8.20435 9.6837 7.44152 9.12109 6.87891C8.55848 6.3163 7.79565 6 7 6Z" stroke="currentColor"/>
</svg>
