<svg width="20" height="21" viewBox="0 0 20 21" fill="none" xmlns="http://www.w3.org/2000/svg">
<path d="M16.5793 10.9449C16.5793 14.476 14.074 16.7712 9.77913 16.7712C5.4843 16.7712 3.15791 14.476 3.15791 10.9449C3.15791 7.14212 6.26517 3 9.77913 3C13.2931 3 16.5793 7.14212 16.5793 10.9449Z" stroke="var(--icon-stroke, currentColor) " stroke-width="1.3" stroke-linecap="round" stroke-linejoin="round"/>
<path d="M6.13341 16.385C4.19544 15.3813 2.81867 13.6423 2.50911 11.5948C2.43293 11.0909 2.84358 10.6602 3.39497 10.6098C4.51225 10.5078 6.64995 10.3687 10 10.3687C13.3501 10.3687 15.4878 10.5078 16.605 10.6098C17.1564 10.6602 17.5671 11.0909 17.4909 11.5948C17.1813 13.6423 15.8045 15.3813 13.8664 16.385C13.8388 16.5848 13.8117 16.7677 13.7863 16.9308C13.7037 17.4603 13.2736 17.8653 12.6932 17.9123C12.1257 17.9582 11.2623 18 9.99994 18C8.73758 18 7.87422 17.9582 7.30667 17.9123C6.72624 17.8653 6.29622 17.4603 6.21363 16.9308C6.1882 16.7677 6.16103 16.5848 6.13341 16.385Z"  stroke="var(--icon-stroke, currentColor) " stroke-width="1.3" stroke-linejoin="round"/>
</svg>
