<svg width="20" height="20" viewBox="0 0 20 20" fill="none" xmlns="http://www.w3.org/2000/svg">
<path d="M5.83334 7.49999V5.83333H17.5V7.49999H5.83334ZM5.83334 10.8333V9.16666H17.5V10.8333H5.83334ZM5.83334 14.1667V12.5H17.5V14.1667H5.83334ZM3.33334 7.49999C3.09723 7.49999 2.89945 7.41999 2.74 7.25999C2.58056 7.09999 2.50056 6.90222 2.5 6.66666C2.49945 6.43111 2.57945 6.23333 2.74 6.07333C2.90056 5.91333 3.09834 5.83333 3.33334 5.83333C3.56834 5.83333 3.76639 5.91333 3.9275 6.07333C4.08861 6.23333 4.16834 6.43111 4.16667 6.66666C4.165 6.90222 4.085 7.10027 3.92667 7.26083C3.76834 7.42138 3.57056 7.50111 3.33334 7.49999ZM3.33334 10.8333C3.09723 10.8333 2.89945 10.7533 2.74 10.5933C2.58056 10.4333 2.50056 10.2356 2.5 9.99999C2.49945 9.76444 2.57945 9.56666 2.74 9.40666C2.90056 9.24666 3.09834 9.16666 3.33334 9.16666C3.56834 9.16666 3.76639 9.24666 3.9275 9.40666C4.08861 9.56666 4.16834 9.76444 4.16667 9.99999C4.165 10.2356 4.085 10.4336 3.92667 10.5942C3.76834 10.7547 3.57056 10.8344 3.33334 10.8333ZM3.33334 14.1667C3.09723 14.1667 2.89945 14.0867 2.74 13.9267C2.58056 13.7667 2.50056 13.5689 2.5 13.3333C2.49945 13.0978 2.57945 12.9 2.74 12.74C2.90056 12.58 3.09834 12.5 3.33334 12.5C3.56834 12.5 3.76639 12.58 3.9275 12.74C4.08861 12.9 4.16834 13.0978 4.16667 13.3333C4.165 13.5689 4.085 13.7669 3.92667 13.9275C3.76834 14.088 3.57056 14.1678 3.33334 14.1667Z" fill="#414141"/>
</svg>
