<svg width="20" height="21" viewBox="0 0 20 21" fill="none" xmlns="http://www.w3.org/2000/svg">
<path d="M9.58247 9.42131C9.58247 10.5728 8.64893 11.5064 7.49739 11.5064C6.34585 11.5064 5.41226 10.5728 5.41226 9.42131C5.41226 8.26977 6.3458 7.33618 7.49739 7.33618C8.64897 7.33618 9.58247 8.26972 9.58247 9.42131Z" fill="white" stroke="currentColor" stroke-linejoin="round"/>
<path d="M9.66104 7.13301C9.71312 6.56092 10.1812 6.12996 10.7552 6.10742C12.5023 6.03888 14.1247 6.13738 15.4696 6.28713C17.6752 6.53272 19.1747 8.47138 19.1747 10.6906C19.1747 11.1412 18.8094 11.5065 18.3588 11.5065H10.4825C10.0761 11.5065 9.73099 11.2135 9.68799 10.8093C9.63687 10.3288 9.58316 9.63409 9.58316 8.83476C9.58316 8.17601 9.61962 7.58834 9.66104 7.13301Z" fill="white" stroke="currentColor" stroke-linejoin="round"/>
<path d="M2.46247 4.01154C2.94343 4.04221 3.23168 4.43125 3.25293 4.91271C3.28764 5.69942 3.32747 7.25567 3.32747 10.2553C3.32747 10.7303 3.32647 11.1691 3.32464 11.5743C4.54089 11.5414 6.62618 11.5064 9.99981 11.5064H18.3369C18.7988 11.5064 19.173 11.8824 19.1694 12.3444C19.1566 14.0218 19.1282 15.0167 19.1026 15.5962C19.081 16.0806 18.7895 16.4697 18.3056 16.4996C18.1938 16.5065 18.067 16.5107 17.9232 16.5107C17.7795 16.5107 17.6526 16.5065 17.5408 16.4996C17.0569 16.4697 16.7654 16.0806 16.7439 15.5962C16.7277 15.2312 16.7105 14.7014 16.6967 13.94C15.4836 13.9731 13.3936 14.0085 9.99981 14.0085C6.60335 14.0085 4.51268 13.9731 3.30006 13.9399C3.28622 14.7029 3.26906 15.2332 3.25293 15.598C3.23168 16.0794 2.94343 16.4685 2.46247 16.4991C2.34989 16.5064 2.22176 16.5107 2.07639 16.5107C1.93106 16.5107 1.80293 16.5064 1.69031 16.4991C1.20939 16.4685 0.921098 16.0794 0.899848 15.598C0.86514 14.8112 0.825348 13.255 0.825348 10.2553C0.825348 7.25567 0.86514 5.69942 0.899848 4.91271C0.921098 4.43125 1.20939 4.04221 1.69031 4.01154C1.80293 4.00429 1.93106 4 2.07639 4C2.22176 4 2.34989 4.00429 2.46247 4.01154Z" fill="white" stroke="currentColor" stroke-linejoin="round"/>
</svg>
