<svg width="21" height="20" viewBox="0 0 21 20" fill="none" xmlns="http://www.w3.org/2000/svg">
<g clip-path="url(#clip0_636_20996)">
<path fill-rule="evenodd" clip-rule="evenodd" d="M8.0509 0.0149345C6.84463 0.102367 5.67285 0.456589 4.62018 1.05201C2.66735 2.17638 1.2882 3.98763 0.741532 6.14284C0.474698 7.23039 0.428405 8.36035 0.605384 9.46607C1.04605 12.013 2.62577 14.1786 4.89456 15.3425C5.38926 15.5971 5.54204 15.622 5.80602 15.4942C5.93157 15.4258 6.03119 15.3181 6.08958 15.1877C6.14797 15.0572 6.16191 14.9112 6.12924 14.772C6.07 14.5538 5.91826 14.4125 5.52957 14.2119C5.15048 14.0228 4.79089 13.7969 4.45597 13.5375C4.0943 13.2548 3.69313 12.8735 3.71704 12.835C3.72847 12.8163 3.98413 12.6334 4.28345 12.4277C4.93301 11.9829 5.30924 11.6223 5.54412 11.2191C5.63246 11.0664 5.90371 10.4439 6.14691 9.83393C6.3901 9.22394 6.60628 8.70852 6.62706 8.68774C6.64785 8.66592 7.02407 8.55888 7.46162 8.44977C7.9002 8.34066 8.32008 8.21908 8.39595 8.18063C8.79503 7.97696 9.16606 7.5748 9.31468 7.1872C9.44563 6.84635 9.7013 5.50584 9.7013 5.16188C9.70234 4.46357 9.30221 3.80162 8.69422 3.49715C8.10247 3.25587 7.50687 3.02411 6.90767 2.80195C6.0118 2.46423 5.2739 2.18158 5.26663 2.17638C5.38906 2.10031 5.51689 2.03328 5.64909 1.97582C6.18551 1.72393 6.74901 1.53426 7.32859 1.41052C7.74119 1.32219 7.83369 1.31596 8.60484 1.31388C9.50072 1.31284 9.80939 1.35233 10.5348 1.55912C11.3663 1.79709 12.4045 2.34265 12.9252 2.81338L13.0177 2.89756L12.496 3.94087C12.2972 4.33053 12.107 4.72446 11.9254 5.12239C11.8384 5.39072 11.8115 5.67487 11.8464 5.95476C11.8828 6.21974 12.365 7.68703 12.4752 7.86888C12.5978 8.07048 12.947 8.19622 13.1767 8.11932C13.4386 8.03307 13.6454 7.76185 13.6454 7.50622C13.6454 7.43348 13.529 7.02821 13.3856 6.60423C13.2432 6.18025 13.1258 5.77498 13.1258 5.70328C13.1258 5.6056 13.2307 5.36659 13.5498 4.73582C14.0341 3.7798 13.9686 3.82448 14.2638 4.25262C15.0048 5.32711 15.3748 6.46498 15.4663 7.94578C15.4798 8.15985 15.5099 8.35001 15.5411 8.41028C15.5853 8.49573 15.648 8.57023 15.7247 8.62836C15.8013 8.6865 15.89 8.72679 15.9842 8.7463C16.0784 8.76582 16.1757 8.76407 16.2692 8.74117C16.3626 8.71827 16.4498 8.67481 16.5243 8.61396C16.7602 8.41548 16.7966 8.19934 16.728 7.4262C16.561 5.51652 15.7273 3.72648 14.3729 2.36966C13.2407 1.24106 11.8009 0.471182 10.2334 0.15626C9.51442 0.0201518 8.78145 -0.0273107 8.0509 0.0149345ZM6.09391 3.87644C7.18932 4.29107 8.12885 4.66101 8.18185 4.69738C8.25126 4.75511 8.30783 4.82672 8.34793 4.90761C8.38802 4.9885 8.41075 5.07688 8.41465 5.16708C8.41465 5.35205 8.15171 6.63956 8.09039 6.75906C8.02142 6.88703 7.90901 6.98616 7.77341 7.0386C7.45792 7.12831 7.14052 7.21112 6.82141 7.28696C6.35477 7.40126 5.90475 7.52908 5.82265 7.57065C5.72667 7.61966 5.64665 7.695 5.59193 7.78783C5.54724 7.86473 5.28949 8.48199 5.02031 9.15848C4.7501 9.83497 4.47988 10.472 4.4196 10.5738C4.2741 10.8191 4.03818 11.0269 3.40836 11.4612L2.88872 11.8198L2.82844 11.7449C2.72061 11.5692 2.62175 11.3882 2.53224 11.2025C2.16335 10.4724 1.92589 9.68306 1.83071 8.87063C1.77875 8.45393 1.80577 7.43244 1.87956 7.01054C2.06427 5.93278 2.50005 4.91361 3.15166 4.03543C3.45098 3.63536 3.97894 3.08772 4.04753 3.10747C4.07767 3.11474 4.99849 3.46182 6.09391 3.87644ZM13.5841 9.43385C13.2481 9.52915 12.9349 9.69167 12.6635 9.91155C12.3922 10.1314 12.1683 10.4041 12.0054 10.7131C11.8605 10.9824 11.773 11.279 11.7487 11.5839L11.7227 11.8426L10.6315 11.852C9.66493 11.8592 9.51527 11.8686 9.31364 11.9289C8.79503 12.0837 8.3128 12.5357 8.09351 13.073L8.0166 13.2631L8.00621 15.8403C7.99582 18.6875 7.98854 18.5774 8.21823 19.0128C8.35541 19.2705 8.68175 19.6062 8.9395 19.7516C9.04654 19.813 9.25648 19.894 9.40406 19.9314C9.66596 19.999 9.79692 20 14.2316 20C18.0541 19.999 18.8284 19.9906 19.0248 19.9491C19.6442 19.8181 20.1826 19.337 20.4081 18.7146L20.4882 18.4932L20.4975 16.0512C20.5048 14.3376 20.4965 13.5396 20.4684 13.3733C20.3562 12.701 19.7534 12.0608 19.0809 11.8998C18.9853 11.8769 18.4885 11.8592 17.8473 11.8561L16.7716 11.8499L16.7488 11.6213C16.7134 11.2721 16.6656 11.11 16.4962 10.7546C16.3621 10.4741 16.2967 10.3847 16.0244 10.1135C15.6741 9.76742 15.4434 9.61467 15.0599 9.47958C14.7055 9.35384 13.9645 9.33098 13.5841 9.43385ZM14.7367 10.7473C15.0911 10.9043 15.4247 11.3501 15.4528 11.7044L15.4642 11.8426L14.243 11.852L13.0219 11.8613V11.7803C13.0219 11.6379 13.1216 11.3594 13.2318 11.1921C13.3669 10.9895 13.5592 10.8357 13.8128 10.7286C14.0674 10.6206 14.4706 10.6289 14.7367 10.7473ZM10.4849 15.9213L10.4756 18.7011L10.0952 18.699C9.65973 18.6969 9.55268 18.6595 9.39471 18.4527L9.29805 18.3259L9.28766 16.02C9.28246 14.7512 9.28662 13.6622 9.29805 13.5998C9.323 13.4627 9.50072 13.2528 9.64414 13.1904C9.70858 13.1623 9.89253 13.1436 10.1212 13.1436L10.4932 13.1416L10.4849 15.9213ZM16.7207 15.9213L16.7114 18.7011L14.243 18.7104L11.7747 18.7187V13.1416H16.729L16.7207 15.9213ZM18.8533 13.1894C18.9332 13.2293 19.0043 13.2849 19.0621 13.353C19.12 13.421 19.1635 13.5 19.1901 13.5853C19.215 13.6726 19.2233 14.4343 19.2161 16.0024L19.2057 18.2906L19.1225 18.4122C18.9614 18.6481 18.8492 18.6959 18.4064 18.7125L18.0105 18.727V13.1416H18.3753C18.606 13.1416 18.7827 13.1592 18.8533 13.1894Z" fill="var(--icon-stroke, currentColor)"/>
</g>
<defs>
<clipPath id="clip0_636_20996">
<rect width="21" height="20" fill="white"/>
</clipPath>
</defs>
</svg>
