<svg width="20" height="20" viewBox="0 0 20 20" fill="none" xmlns="http://www.w3.org/2000/svg">
<path fill-rule="evenodd" clip-rule="evenodd" d="M13.5135 11.9247C13.838 11.9965 14.1386 12.1502 14.3865 12.3713C14.6345 12.5923 14.8215 12.8733 14.9296 13.1872C15.0078 13.4175 15.0078 13.4291 15.0182 16.0807L15.0297 18.7532H11.2313L11.2428 16.0853C11.2543 13.4416 11.2544 13.4174 11.3315 13.1872C11.5402 12.5659 12.0975 12.0634 12.7309 11.9268C12.9877 11.8625 13.2563 11.8618 13.5135 11.9247ZM12.7841 14.6707C12.9149 14.5284 13.092 14.4371 13.2839 14.4132C13.4311 14.3856 13.5829 14.3947 13.7258 14.4396C13.8686 14.4845 13.9982 14.5639 14.1031 14.6707C14.2774 14.8448 14.3389 14.9845 14.3577 15.2514C14.3974 15.806 13.9914 16.2501 13.4436 16.2501C12.8958 16.2501 12.4898 15.806 12.5295 15.2514C12.5483 14.9845 12.6098 14.8448 12.7841 14.6707Z" fill="white"/>
<path fill-rule="evenodd" clip-rule="evenodd" d="M18.7311 14.4757L18.7313 15.3577C18.7323 18.3685 18.7324 18.7051 18.5859 18.9562C18.5674 18.9878 18.5466 19.0181 18.5233 19.0521C18.5066 19.0764 18.4886 19.1026 18.4692 19.1326C18.2093 19.533 17.8138 19.8311 17.3943 19.9406C17.1815 19.9958 16.6618 20 10 20C3.3382 20 2.81853 19.9958 2.60566 19.9406C2.00877 19.7842 1.48492 19.2619 1.30648 18.6468C1.25639 18.4738 1.25222 18.0338 1.26057 14.4215L1.26891 10.3902L1.36596 10.263C1.4072 10.1994 1.46196 10.1457 1.52636 10.1057C1.59075 10.0657 1.66318 10.0404 1.7385 10.0315C1.82629 10.0115 1.91712 10.0117 2.00425 10.0315C2.03044 10.0375 2.0563 10.0452 2.08164 10.0547C2.19127 10.0959 2.2864 10.1683 2.35521 10.263L2.45226 10.3902L2.46896 14.36L2.4867 18.3299L2.59105 18.4769C2.60616 18.4982 2.61856 18.5179 2.63001 18.5361C2.64621 18.5619 2.66051 18.5846 2.6779 18.6047C2.80802 18.7547 3.11121 18.7545 5.68354 18.7534L6.4771 18.7532H10.0177V16.1031C10.0177 14.4299 10.0313 13.3707 10.0543 13.2299C10.2369 12.1061 11.0863 11.1335 12.183 10.7905C12.9667 10.5465 13.8934 10.6247 14.5737 10.9927C15.4315 11.4566 15.9981 12.2072 16.188 13.1309C16.236 13.3613 16.2433 13.7658 16.2433 16.076V18.7532H16.6451C17.17 18.7532 17.3349 18.6739 17.482 18.3528C17.4997 18.3132 17.5206 16.6014 17.531 14.3371L17.5477 10.3902L17.6458 10.2619C17.7005 10.1831 17.7747 10.1198 17.8613 10.0783C17.9083 10.0558 17.958 10.0401 18.009 10.0315C18.0519 10.0243 18.0957 10.0222 18.1394 10.0253C18.2352 10.0185 18.331 10.0368 18.4176 10.0783C18.5041 10.1198 18.5784 10.1831 18.633 10.2619L18.7311 10.3902V14.4757ZM13.5135 11.9247C13.838 11.9965 14.1386 12.1502 14.3865 12.3713C14.6345 12.5923 14.8215 12.8733 14.9296 13.1872C15.0078 13.4175 15.0078 13.4291 15.0182 16.0807L15.0297 18.7532H11.2313L11.2428 16.0853C11.2543 13.4416 11.2544 13.4174 11.3315 13.1872C11.5402 12.5659 12.0975 12.0634 12.7309 11.9268C12.9877 11.8625 13.2563 11.8618 13.5135 11.9247Z" fill="currentColor"/>
<path fill-rule="evenodd" clip-rule="evenodd" d="M2.00425 10.0315C2.03044 10.0375 2.0563 10.0452 2.08164 10.0547C2.19127 10.0959 2.2864 10.1683 2.35521 10.263L2.45226 10.3902L2.46896 14.36L2.4867 18.3299L2.59105 18.4769C2.60616 18.4982 2.61856 18.5179 2.63001 18.5361C2.64621 18.5619 2.66051 18.5846 2.6779 18.6047C2.80802 18.7547 3.11121 18.7545 5.68354 18.7534L6.4771 18.7532H10.0177V16.1031C10.0177 14.4299 10.0313 13.3707 10.0543 13.2299C10.2369 12.1061 11.0863 11.1335 12.183 10.7905C12.9667 10.5465 13.8934 10.6247 14.5737 10.9927C15.4315 11.4566 15.9981 12.2072 16.188 13.1309C16.236 13.3613 16.2433 13.7658 16.2433 16.076V18.7532H16.6451C17.17 18.7532 17.3349 18.6739 17.482 18.3528C17.4997 18.3132 17.5206 16.6014 17.531 14.3371L17.5477 10.3902L17.6458 10.2619C17.7005 10.1831 17.7747 10.1198 17.8613 10.0783C17.9083 10.0558 17.958 10.0401 18.009 10.0315H2.00425ZM4.59146 12.5367C4.23458 12.5971 3.89231 12.9068 3.78796 13.2623C3.765 13.3405 3.75561 13.9941 3.76291 15.0867C3.77335 16.7515 3.77544 16.7922 3.84848 16.9288C3.96327 17.1425 4.1991 17.3541 4.41094 17.4333C4.59355 17.5021 4.66852 17.5042 6.31415 17.4948C8.00587 17.4844 8.01851 17.4843 8.16446 17.4062C8.37434 17.291 8.54291 17.1132 8.64656 16.8975L8.73004 16.7203V15.0387C8.73004 13.9295 8.71752 13.3144 8.69248 13.231C8.63796 13.0798 8.55176 12.942 8.43965 12.8267C8.32754 12.7115 8.19209 12.6215 8.04237 12.5627C7.88167 12.5096 4.88052 12.4866 4.59146 12.5367Z" fill="white"/>
<path d="M18.7478 6.37128C18.7478 6.25765 17.7345 1.57992 17.649 1.29948C17.6312 1.24214 17.2368 1.23901 10 1.23901C2.76323 1.23901 2.36878 1.24214 2.35104 1.29948C2.26547 1.57992 1.25222 6.25765 1.25222 6.37128C1.25222 6.62983 1.37953 6.89775 1.61432 7.13232C1.88041 7.39816 2.11103 7.49407 2.4867 7.49407C2.63986 7.50055 2.79273 7.47569 2.93593 7.42101C3.07913 7.36633 3.20963 7.28299 3.31942 7.1761C3.56465 6.953 3.67735 6.72053 3.73891 6.31395C3.81092 5.83231 3.98518 5.64674 4.36502 5.64674C4.74486 5.64674 4.91913 5.83231 4.99113 6.31395C5.0527 6.72053 5.1654 6.953 5.41062 7.1761C5.65585 7.40128 5.90003 7.49407 6.24335 7.49407C6.39651 7.50055 6.54939 7.47569 6.69258 7.42101C6.83578 7.36633 6.96628 7.28299 7.07607 7.1761C7.3213 6.953 7.434 6.72053 7.49557 6.31395C7.56757 5.83231 7.74183 5.64674 8.12167 5.64674C8.50151 5.64674 8.67578 5.83231 8.74778 6.31395C8.80935 6.72053 8.92205 6.953 9.16728 7.1761C9.4125 7.40128 9.65668 7.49407 10 7.49407C10.1532 7.50055 10.306 7.47569 10.4492 7.42101C10.5924 7.36633 10.7229 7.28299 10.8327 7.1761C11.078 6.953 11.1907 6.72053 11.2522 6.31395C11.3242 5.83231 11.4985 5.64674 11.8783 5.64674C12.2582 5.64674 12.4324 5.83231 12.5044 6.31395C12.566 6.72053 12.6787 6.953 12.9239 7.1761C13.1692 7.40128 13.4133 7.49407 13.7567 7.49407C13.9098 7.50055 14.0627 7.47569 14.2059 7.42101C14.3491 7.36633 14.4796 7.28299 14.5894 7.1761C14.8346 6.953 14.9452 6.72365 15.0057 6.31812C15.0788 5.83439 15.2541 5.64674 15.635 5.64674C16.0148 5.64674 16.1891 5.83231 16.2611 6.31395C16.3227 6.72053 16.4354 6.953 16.6806 7.1761C16.9258 7.40128 17.17 7.49407 17.5133 7.49407C17.889 7.49407 18.1196 7.39816 18.3857 7.13232C18.6205 6.89775 18.7478 6.62983 18.7478 6.37128Z" fill="white"/>
<path d="M7.51435 16.2511L7.50496 15.0085L7.49557 13.7658L6.25796 13.7575C5.57759 13.7522 5.00991 13.7585 4.99739 13.771C4.98487 13.7846 4.97339 14.3475 4.97339 15.0231V16.2511H7.51435Z" fill="white"/>
<path fill-rule="evenodd" clip-rule="evenodd" d="M2.16529 0.025535C1.78963 0.089128 1.4484 0.325778 1.27518 0.6427C1.13743 0.894987 -0.0010428 6.00224 0 6.36294C0.00208775 7.26471 0.580195 8.12166 1.46718 8.53657C2.06303 8.81492 2.91036 8.81492 3.50621 8.53657C3.75978 8.41773 4.10519 8.18004 4.25754 8.01949L4.3598 7.91211L4.51842 8.06015C5.01513 8.52302 5.57237 8.74403 6.24335 8.74403C6.62841 8.74403 6.9665 8.67523 7.26286 8.53657C7.51644 8.41773 7.86184 8.18004 8.01419 8.01949L8.11646 7.91211L8.27507 8.06015C8.77178 8.52302 9.32902 8.74403 10 8.74403C10.3851 8.74403 10.7232 8.67523 11.0195 8.53657C11.2731 8.41773 11.6185 8.18004 11.7708 8.01949L11.8731 7.91211L12.0317 8.06015C12.5284 8.52302 13.0857 8.74403 13.7567 8.74403C14.1417 8.74403 14.4798 8.67523 14.7762 8.53657C15.0297 8.41773 15.3751 8.18004 15.5275 8.01949L15.6298 7.91211L15.7884 8.06015C16.2851 8.52302 16.8423 8.74403 17.5133 8.74403C18.0726 8.74403 18.5193 8.60121 18.9701 8.27907C19.6056 7.82663 19.9979 7.09583 20 6.36399C20 6.17425 19.8727 5.54562 19.4271 3.54921C19.2286 2.6485 19.0254 1.7488 18.8177 0.850159C18.729 0.538449 18.3867 0.195464 18.0392 0.0693204C17.8681 0.00781237 17.5801 0.00468485 10.1044 0.000514819C5.76542 -0.00261271 2.26756 0.00885488 2.16529 0.025535ZM17.649 1.29948C17.7345 1.57992 18.7478 6.25765 18.7478 6.37128C18.7478 6.62983 18.6205 6.89775 18.3857 7.13232C18.1196 7.39816 17.889 7.49407 17.5133 7.49407C17.17 7.49407 16.9258 7.40128 16.6806 7.1761C16.4354 6.953 16.3227 6.72053 16.2611 6.31395C16.1891 5.83231 16.0148 5.64674 15.635 5.64674C15.2541 5.64674 15.0788 5.83439 15.0057 6.31812C14.9452 6.72365 14.8346 6.953 14.5894 7.1761C14.4796 7.28299 14.3491 7.36633 14.2059 7.42101C14.0627 7.47569 13.9098 7.50055 13.7567 7.49407C13.4133 7.49407 13.1692 7.40128 12.9239 7.1761C12.6787 6.953 12.566 6.72053 12.5044 6.31395C12.4324 5.83231 12.2582 5.64674 11.8783 5.64674C11.4985 5.64674 11.3242 5.83231 11.2522 6.31395C11.1907 6.72053 11.078 6.953 10.8327 7.1761C10.7229 7.28299 10.5924 7.36633 10.4492 7.42101C10.306 7.47569 10.1532 7.50055 10 7.49407C9.65668 7.49407 9.4125 7.40128 9.16728 7.1761C8.92205 6.953 8.80935 6.72053 8.74778 6.31395C8.67578 5.83231 8.50151 5.64674 8.12167 5.64674C7.74183 5.64674 7.56757 5.83231 7.49557 6.31395C7.434 6.72053 7.3213 6.953 7.07607 7.1761C6.96628 7.28299 6.83578 7.36633 6.69258 7.42101C6.54939 7.47569 6.39651 7.50055 6.24335 7.49407C5.90003 7.49407 5.65585 7.40128 5.41062 7.1761C5.1654 6.953 5.0527 6.72053 4.99113 6.31395C4.91913 5.83231 4.74486 5.64674 4.36502 5.64674C3.98518 5.64674 3.81092 5.83231 3.73891 6.31395C3.67735 6.72053 3.56465 6.953 3.31942 7.1761C3.20963 7.28299 3.07913 7.36633 2.93593 7.42101C2.79273 7.47569 2.63986 7.50055 2.4867 7.49407C2.11103 7.49407 1.88041 7.39816 1.61432 7.13232C1.37953 6.89775 1.25222 6.62983 1.25222 6.37128C1.25222 6.25765 2.26547 1.57992 2.35104 1.29948C2.36878 1.24214 2.76323 1.23901 10 1.23901C17.2368 1.23901 17.6312 1.24214 17.649 1.29948ZM4.59146 12.5367C4.23458 12.5971 3.89231 12.9068 3.78796 13.2623C3.765 13.3405 3.75561 13.9941 3.76291 15.0867C3.77335 16.7515 3.77544 16.7922 3.84848 16.9288C3.96327 17.1425 4.1991 17.3541 4.41094 17.4333C4.59355 17.5021 4.66852 17.5042 6.31415 17.4948C8.00587 17.4844 8.01851 17.4843 8.16446 17.4062C8.37434 17.291 8.54291 17.1132 8.64656 16.8975L8.73004 16.7203V15.0387C8.73004 13.9295 8.71752 13.3144 8.69248 13.231C8.63796 13.0798 8.55176 12.942 8.43965 12.8267C8.32754 12.7115 8.19209 12.6215 8.04237 12.5627C7.88167 12.5096 4.88052 12.4866 4.59146 12.5367ZM7.50496 15.0085L7.51435 16.2511H4.97339V15.0231C4.97339 14.3475 4.98487 13.7846 4.99739 13.771C5.00991 13.7585 5.57759 13.7522 6.25796 13.7575L7.49557 13.7658L7.50496 15.0085Z" fill="currentColor"/>
</svg>
