<svg width="25" height="25" viewBox="0 0 25 25" fill="none" xmlns="http://www.w3.org/2000/svg">
<path d="M16.2468 11.5453C17.6415 12.9401 19.2106 12.9401 20.6053 11.5453C22.0002 10.1506 22.0002 8.58148 20.6053 7.1867C19.2106 5.79193 17.6415 5.79193 16.2468 7.1867C14.852 8.58148 14.852 10.1506 16.2468 11.5453Z" fill="white" stroke="currentColor" stroke-width="1.3" stroke-linecap="round" stroke-linejoin="round"/>
<path d="M13.9468 13.5322C13.9468 13.5322 12.5469 11.9395 12.0117 10.7173C11.6308 9.84756 11.1824 7.67157 11.7099 6.922C12.2375 6.17244 14.9975 4.17046 14.9975 4.17046C15.8414 3.46418 15.9529 2.20751 15.2466 1.36363C14.5403 0.51975 13.2837 0.408212 12.4398 1.1145L9.15222 3.86604C7.8357 4.96792 7.15054 6.65044 7.3228 8.35856L7.56065 10.7173L3.05493 14.1127" fill="white" stroke="currentColor" stroke-width="1.3" stroke-linecap="round" stroke-linejoin="round"/>
<path d="M0.649902 23.6506H1.92768C4.71154 23.6506 4.48581 21.1965 7.03882 21.1965C9.59183 21.1965 9.36609 23.6506 12.15 23.6506C14.9338 23.6506 14.7081 21.1965 17.2611 21.1965C19.8141 21.1965 19.5884 23.6506 22.3723 23.6506H23.65" stroke="var(--icon-stroke, currentColor)" stroke-width="1.3" stroke-linecap="round" stroke-linejoin="round"/>
<path d="M0.649902 17.8456H1.92768C4.71154 17.8456 4.48581 15.3914 7.03882 15.3914C9.59183 15.3914 9.36609 17.8456 12.15 17.8456C14.9338 17.8456 14.7081 15.3914 17.2611 15.3914C19.8141 15.3914 19.5884 17.8456 22.3723 17.8456H23.65" stroke="var(--icon-stroke, currentColor)" stroke-width="1.3" stroke-linecap="round" stroke-linejoin="round"/>
</svg>
