<svg width="22" height="22" viewBox="0 0 22 22" fill="none" xmlns="http://www.w3.org/2000/svg">
<g clip-path="url(#clip0_3029_20956)">
<path d="M9.75743 1.69845C10.3211 0.76718 11.6789 0.767185 12.2426 1.69845L14.7407 5.826C14.9432 6.16054 15.2735 6.39914 15.656 6.48725L20.3759 7.57418C21.4408 7.81941 21.8604 9.10346 21.1438 9.92424L17.9679 13.5622C17.7105 13.857 17.5843 14.2431 17.6183 14.6321L18.0372 19.4314C18.1317 20.5142 17.0332 21.3078 16.0267 20.8838L11.5657 19.0046C11.2041 18.8523 10.7959 18.8523 10.4343 19.0046L5.97333 20.8838C4.96683 21.3078 3.86831 20.5142 3.96283 19.4314L4.38172 14.6321C4.41565 14.2431 4.28953 13.857 4.03209 13.5622L0.856169 9.92424C0.139603 9.10346 0.559199 7.81941 1.62411 7.57418L6.34396 6.48725C6.72652 6.39914 7.05684 6.16054 7.25929 5.826L9.75743 1.69845Z" stroke="currentColor" stroke-linejoin="round"/>
</g>
<defs>
<clipPath id="clip0_3029_20956">
<rect width="22" height="22" fill="white"/>
</clipPath>
</defs>
</svg>
