<svg width="21" height="20" viewBox="0 0 21 20" fill="none" xmlns="http://www.w3.org/2000/svg">
<path d="M9.25743 0.69845C9.82108 -0.23282 11.1789 -0.232815 11.7426 0.698455L14.2407 4.826C14.4432 5.16054 14.7735 5.39914 15.156 5.48725L19.8759 6.57418C20.9408 6.81941 21.3604 8.10346 20.6438 8.92424L17.4679 12.5622C17.2105 12.857 17.0843 13.2431 17.1183 13.6321L17.5372 18.4314C17.6317 19.5142 16.5332 20.3078 15.5267 19.8838L11.0657 18.0046C10.7041 17.8523 10.2959 17.8523 9.93429 18.0046L5.47333 19.8838C4.46683 20.3078 3.36831 19.5142 3.46283 18.4314L3.88172 13.6321C3.91565 13.2431 3.78953 12.857 3.53209 12.5622L0.356169 8.92424C-0.360397 8.10346 0.0591987 6.81941 1.12411 6.57418L5.84396 5.48725C6.22652 5.39914 6.55684 5.16054 6.75929 4.826L9.25743 0.69845Z" fill="currentColor"/>
</svg>
