<svg width="20" height="20" viewBox="0 0 20 20" fill="none" xmlns="http://www.w3.org/2000/svg">
<path d="M1.24654 10.002C0.73205 10.6029 0.711348 11.4247 1.21522 12.0346C1.53366 12.42 1.97352 12.9263 2.57433 13.574C2.79619 13.8132 3.15203 13.8537 3.46656 13.7672C4.21886 13.5603 5.0598 13.7538 5.653 14.347C6.24619 14.9402 6.43974 15.7811 6.23284 16.5335C6.14633 16.848 6.18685 17.2038 6.42598 17.4257C7.07363 18.0265 7.57995 18.4663 7.96538 18.7847C8.57528 19.2886 9.39704 19.2679 9.99798 18.7534C10.8297 18.0413 12.2473 16.7522 14.4998 14.4997C16.7523 12.2472 18.0414 10.8297 18.7535 9.99793C19.268 9.39699 19.2887 8.57523 18.7848 7.96531C18.4664 7.57993 18.0266 7.07363 17.4258 6.42601C17.2039 6.18685 16.848 6.14635 16.5335 6.2329C15.7812 6.43989 14.9401 6.24637 14.3469 5.6531C13.7536 5.05986 13.5601 4.21883 13.7671 3.46647C13.8536 3.15193 13.8132 2.79603 13.574 2.57419C12.9263 1.97342 12.42 1.53359 12.0346 1.21516C11.4247 0.711297 10.603 0.731993 10.002 1.24649C9.17027 1.95859 7.75271 3.24765 5.5002 5.50016C3.24772 7.75265 1.95864 9.17022 1.24654 10.002Z" fill="white" stroke="currentColor" stroke-width="1.3" stroke-linejoin="round"/>
<path d="M14.7497 11.7499L15.9881 12.9883L14.7497 11.7499Z" fill="white"/>
<path d="M14.7497 11.7499L15.9881 12.9883" stroke="currentColor" stroke-width="1.3" stroke-linecap="round" stroke-linejoin="round"/>
<path d="M12.2498 9.25L13.2498 10.2499L12.2498 9.25Z" fill="white"/>
<path d="M12.2498 9.25L13.2498 10.2499" stroke="currentColor" stroke-width="1.3" stroke-linecap="round" stroke-linejoin="round"/>
<path d="M9.75 6.75012L10.7499 7.75007L9.75 6.75012Z" fill="white"/>
<path d="M9.75 6.75012L10.7499 7.75007" stroke="currentColor" stroke-width="1.3" stroke-linecap="round" stroke-linejoin="round"/>
<path d="M7.01184 4.01196L8.25006 5.25018L7.01184 4.01196Z" fill="white"/>
<path d="M7.01184 4.01196L8.25006 5.25018" stroke="currentColor" stroke-width="1.3" stroke-linecap="round" stroke-linejoin="round"/>
</svg>
