<svg width="20" height="21" viewBox="0 0 20 21" fill="none" xmlns="http://www.w3.org/2000/svg">
<path d="M4.4519 16.0489C3.97631 16.0666 3.5739 16.3533 3.52643 16.8166C3.51044 16.9727 3.5 17.1562 3.5 17.3694C3.5 17.5826 3.51044 17.7662 3.52643 17.9222C3.5739 18.3855 3.97631 18.6722 4.4519 18.69C5.05319 18.7124 6.06767 18.7357 7.6893 18.7357C9.31093 18.7357 10.3254 18.7124 10.9267 18.69C11.4023 18.6722 11.8047 18.3855 11.8522 17.9222C11.8682 17.7662 11.8786 17.5826 11.8786 17.3694C11.8786 17.1562 11.8682 16.9727 11.8522 16.8166C11.8047 16.3533 11.4023 16.0666 10.9267 16.0489C10.3254 16.0264 9.31093 16.0032 7.6893 16.0032C6.06767 16.0032 5.05319 16.0264 4.4519 16.0489Z" fill="white" stroke="currentColor" stroke-linejoin="round"/>
<path d="M11.8786 3.23248C11.8786 4.74158 10.6282 5.96496 9.08571 5.96496C7.54326 5.96496 6.29285 4.74158 6.29285 3.23248C6.29285 1.72337 7.54326 0.5 9.08571 0.5C10.6282 0.5 11.8786 1.72337 11.8786 3.23248Z" fill="white" stroke="currentColor"/>
<path d="M12.6461 15.883L13.326 19.3752C13.4354 19.9373 13.8911 20.3722 14.4731 20.4293C14.7251 20.454 15.0177 20.4785 15.34 20.4979C16.036 20.5399 16.5773 19.9443 16.4909 19.2674C16.3315 18.0172 16.0737 16.057 15.8191 14.378C15.6926 13.5437 15.0923 12.8543 14.2614 12.6293C13.5484 12.4362 12.6602 12.2223 11.8789 12.1131L11.372 7.81449C11.2601 6.8655 10.493 6.11562 9.51932 6.04512C9.43213 6.03879 9.3436 6.03264 9.25418 6.02672C8.35106 5.96697 7.57916 6.60082 7.46493 7.4794C7.26831 8.99187 7.0264 11.4202 7.11135 13.7448C7.14412 14.6423 7.90057 15.3298 8.81765 15.3688L12.2091 15.5132C12.4247 15.5224 12.6057 15.6754 12.6461 15.883Z" fill="white" stroke="currentColor" stroke-linejoin="round"/>
</svg>
